# xmcd
#
# Track frame offsets:
#	150
#	19188
#	35270
#	47819
#	65209
#	82078
#	99741
#	113726
#	127139
#	141534
#	158346
#	180382
#	196705
#	212177
#	229076
#	244803
#
# Disc length: 3403 seconds
#
# Revision: 0
# Processed by: cddbd v1.4PL0 Copyright (c) Steve Scherf et al.
# Submitted via: dBpowerAMP V4.0
#
DISCID=e30d4910
DTITLE=Star Academy - Les Primes CD 2
DYEAR=1900
DGENRE=Undefined
TTITLE0=Les yeux révolver
TTITLE1=Meilleure ennemie
TTITLE2=Aimer
TTITLE3=Le paradis blanc
TTITLE4=Trop peu de temps
TTITLE5=Seven seconds
TTITLE6=Dieu m'a donné la foi
TTITLE7=Moi... Lolita
TTITLE8=You didn't expect that
TTITLE9=Your song
TTITLE10=Toute la musique que j'aime
TTITLE11=Alors regarde
TTITLE12=Sensualité
TTITLE13=Parle-moi
TTITLE14=J'ai tout oublié
TTITLE15=Le lion est mort ce soir
EXTD=
EXTT0=
EXTT1=
EXTT2=
EXTT3=
EXTT4=
EXTT5=
EXTT6=
EXTT7=
EXTT8=
EXTT9=
EXTT10=
EXTT11=
EXTT12=
EXTT13=
EXTT14=
EXTT15=
PLAYORDER=
